<svg xmlns="http://www.w3.org/2000/svg" 
viewBox="0 0 252.4 71.43">
<line y1="49.91" x2="252.26" y2="49.91" style="fill:#0099d4"/>
<rect y="49.04" width="252.26" height="1.73" style="fill:#0099d4"/>
<polygon points="6.54 23.17 27.71 23.17 27.71 16.96 6.54 16.96 6.54 6.91 28.25 6.91 28.25 0.65 0 0.65 0 40.67 28.46 40.67 28.46 34.51 6.54 34.51 6.54 23.17" style="fill:#0099d4"/><polygon points="57.04 31.38 44.34 0.65 35.81 0.65 35.81 40.67 42.13 40.67 42.13 11.67 54.23 40.67 59.63 40.67 71.73 11.61 71.73 40.67 78.15 40.67 78.15 0.65 69.73 0.65 57.04 31.38" style="fill:#0099d4"/><path d="M106,15.36h11.88c5.72,0,8.32,1.67,8.32,7.12s-2.71,7.35-8.21,7.35h-6l1,5.94h4.73c11.23,0,15-5.35,15-13.61S128.82,9.42,118,9.42H99.65v40H106Z" transform="translate(-12.74 -8.77)" style="fill:#0099d4"/><path d="M157.23,8.77c-12.8,0-20.63,5.94-20.63,20.63s7.83,20.69,20.63,20.69,20.68-6,20.68-20.69S170,8.77,157.23,8.77Zm0,35.21c-10,0-14-5.29-14-14.47s4.06-14.42,14-14.42,14.09,5.29,14.09,14.42S167.27,44,157.23,44Z" transform="translate(-12.74 -8.77)" style="fill:#0099d4"/><polygon points="178.19 0.65 171.65 0.65 171.65 40.67 198.66 40.67 198.66 34.67 178.19 34.67 178.19 0.65" style="fill:#0099d4"/><rect x="204.65" y="0.65" width="6.48" height="40.02" style="fill:#0099d4"/><path d="M249.59,26c-6.75-1.07-10.48-1.83-10.48-5.88,0-3.73,2.32-5.29,9-5.29a22.51,22.51,0,0,1,11.61,3.07l3.51-5.34c-3.13-2.11-7.88-3.78-15.07-3.78-10.42,0-15.55,3.13-15.55,11.5S238.3,30.37,248,31.88c6.64,1,10.69,1.84,10.69,6.16s-2.54,6.21-10.59,6.21A25.4,25.4,0,0,1,233.76,40l-3.29,5c4.8,3.35,10.8,4.92,17.77,4.92,12.15,0,16.9-4.22,16.9-12.26C265.14,28.91,258.77,27.46,249.59,26Z" transform="translate(-12.74 -8.77)" style="fill:#0099d4"/><path d="M12.74,67.91h2V80h-2Z" transform="translate(-12.74 -8.77)" style="fill:#0099d4"/><path d="M17.5,67.91h2.13L26,76.64V67.91h1.93V80H26.1l-6.68-9.16V80H17.5Z" transform="translate(-12.74 -8.77)" style="fill:#0099d4"/><path d="M30.56,67.91h8.29V69.8H32.54v3.25h6.15v1.87H32.54V80h-2Z" transform="translate(-12.74 -8.77)" style="fill:#0099d4"/><path d="M39.93,73.94c0-4.43,2.37-6.23,6.23-6.23s6.25,1.8,6.25,6.23S50,80.19,46.16,80.19,39.93,78.4,39.93,73.94Zm10.49,0c0-2.76-1.22-4.36-4.26-4.36s-4.24,1.6-4.24,4.36,1.23,4.37,4.24,4.37S50.42,76.75,50.42,74Z" transform="translate(-12.74 -8.77)" style="fill:#0099d4"/><path d="M59.48,75.59H56.3V80H54.38V67.91h5.53c3.29,0,4.38,1.42,4.38,3.77a3.41,3.41,0,0,1-2.78,3.75L64.13,80H62Zm.38-1.81c1.58,0,2.44-.44,2.44-2s-.83-2.06-2.47-2.06H56.3v4.08Z" transform="translate(-12.74 -8.77)" style="fill:#0099d4"/><path d="M66.54,67.91h2.57L73,77.19l3.83-9.28h2.54V80H77.38V71.22L73.73,80H72.1l-3.66-8.76V80h-1.9Z" transform="translate(-12.74 -8.77)" style="fill:#0099d4"/><path d="M85.8,67.83h2L92.69,80h-2l-.9-2.32H83.83L82.93,80H81Zm3.25,8-2.26-5.66-2.27,5.66Z" transform="translate(-12.74 -8.77)" style="fill:#0099d4"/><path d="M96,69.8H91.65V67.91h10.7V69.8H98V80H96Z" transform="translate(-12.74 -8.77)" style="fill:#0099d4"/><path d="M104.15,67.91h2V80h-2Z" transform="translate(-12.74 -8.77)" style="fill:#0099d4"/><path d="M108.21,73.94c0-4.43,2.37-6.23,6.24-6.23s6.24,1.8,6.24,6.23-2.38,6.25-6.24,6.25S108.21,78.4,108.21,73.94Zm10.49,0c0-2.76-1.22-4.36-4.25-4.36s-4.25,1.6-4.25,4.36,1.23,4.37,4.25,4.37S118.7,76.75,118.7,74Z" transform="translate(-12.74 -8.77)" style="fill:#0099d4"/><path d="M122.66,67.91h2.13l6.36,8.73V67.91h1.93V80h-1.81l-6.69-9.16V80h-1.92Z" transform="translate(-12.74 -8.77)" style="fill:#0099d4"/><path d="M139.4,67.91H142l3.83,9.28,3.84-9.28h2.54V80h-1.94V71.22L146.6,80H145l-3.65-8.76V80H139.4Z" transform="translate(-12.74 -8.77)" style="fill:#0099d4"/><path d="M158.67,67.83h2L165.56,80h-2l-.9-2.32H156.7L155.8,80h-2Zm3.25,8-2.27-5.66-2.27,5.66Z" transform="translate(-12.74 -8.77)" style="fill:#0099d4"/><path d="M167.19,67.91h2.14l6.36,8.73V67.91h1.93V80H175.8l-6.68-9.16V80h-1.93Z" transform="translate(-12.74 -8.77)" style="fill:#0099d4"/><path d="M184.1,67.83h2L191,80h-2l-.9-2.32h-5.92L181.23,80h-2Zm3.24,8-2.26-5.66-2.27,5.66Z" transform="translate(-12.74 -8.77)" style="fill:#0099d4"/><path d="M191.44,73.94c0-4.35,2.22-6.23,6.18-6.23a6.13,6.13,0,0,1,4.65,1.62l-1.41,1.45a4.29,4.29,0,0,0-3.25-1.16c-2.89,0-4.19,1.44-4.19,4.34s1,4.45,4.17,4.45c2.79,0,3.51-1,3.51-3.18v-.31h-3.73V73.14h5.69v1.72c0,3.37-1.11,5.32-5.55,5.32S191.44,78,191.44,73.94Z" transform="translate(-12.74 -8.77)" style="fill:#0099d4"/><path d="M205,67.91h8.53V69.8H207v3h6.4v1.88H207v3.43h6.63V80H205Z" transform="translate(-12.74 -8.77)" style="fill:#0099d4"/><path d="M215.81,67.91h2.58l3.83,9.28,3.84-9.28h2.54V80h-1.94V71.22L223,80h-1.63l-3.65-8.76V80h-1.91Z" transform="translate(-12.74 -8.77)" style="fill:#0099d4"/><path d="M231.25,67.91h8.53V69.8h-6.56v3h6.4v1.88h-6.4v3.43h6.63V80h-8.6Z" transform="translate(-12.74 -8.77)" style="fill:#0099d4"/><path d="M242.07,67.91h2.13l6.36,8.73V67.91h1.93V80h-1.81L244,70.84V80h-1.92Z" transform="translate(-12.74 -8.77)" style="fill:#0099d4"/><path d="M258.52,69.8h-4.36V67.91h10.7V69.8h-4.35V80h-2Z" transform="translate(-12.74 -8.77)" style="fill:#0099d4"/></svg>